<svg width="35" height="35" viewBox="0 0 35 35" fill="none" xmlns="http://www.w3.org/2000/svg">
<path d="M21.3335 13.5475C22.6424 14.8583 25.1181 14.5041 26.8633 12.7563C28.6085 11.0085 28.9621 8.52893 27.6533 7.21807C26.3444 5.90721 23.8686 6.26143 22.1235 8.00925C20.3783 9.75706 20.0246 12.2366 21.3335 13.5475Z" fill="#F67875"/>
<path d="M34.5871 7.24517C33.7936 10.6008 31.668 15.1773 26.623 20.8468L26.0999 26.1149C25.9598 27.3775 25.3948 28.5547 24.4979 29.453L19.2866 34.6723C18.9466 35.0128 18.4271 35.0972 17.997 34.8818C17.5669 34.6665 17.3226 34.1996 17.3907 33.7229L17.9832 29.5686C18.0707 28.9554 17.9531 28.271 17.6944 27.477C17.5284 26.9675 17.3447 26.5173 17.1501 26.0402C17.0913 25.8959 17.0315 25.7492 16.9708 25.5977C15.1875 25.1665 13.5191 24.149 12.1768 22.8047C10.8343 21.4601 9.81819 19.7888 9.38775 18.0023C9.2356 17.9413 9.08837 17.8811 8.94363 17.822C8.46839 17.6278 8.01989 17.4445 7.5116 17.2785C6.71867 17.0196 6.03536 16.9019 5.42311 16.9895L1.2752 17.5829C0.799165 17.651 0.333034 17.4064 0.117981 16.9756C-0.0970717 16.5449 -0.0127925 16.0246 0.327237 15.6841L5.53859 10.4648C6.43549 9.56655 7.61094 9.00074 8.87159 8.86046L8.88486 8.85906L14.1352 8.33831C19.6978 3.39277 24.2527 1.27339 27.6135 0.454662C29.5616 -0.0199118 31.0921 -0.0531746 32.1631 0.0443309C32.6975 0.0929922 33.1148 0.173969 33.4098 0.247352C33.5572 0.284029 33.6739 0.318772 33.7593 0.34657C34.1632 0.477999 34.3694 0.631919 34.5277 0.99016L34.5288 0.992585C34.5513 1.04415 34.5716 1.09687 34.5909 1.14974C34.6217 1.23455 34.6602 1.35004 34.7011 1.49579C34.7831 1.78743 34.8748 2.19952 34.9348 2.72836C35.0549 3.7884 35.0459 5.30444 34.5871 7.24517ZM24.0264 23.5958L24.1133 23.5087L23.8785 25.8738C23.7933 26.6291 23.4547 27.3331 22.918 27.8706L20.0766 30.7164L20.1951 29.8851C20.3531 28.7774 20.1208 27.7104 19.8185 26.7828C19.7148 26.4644 19.5894 26.1279 19.4597 25.7958C21.0737 25.6543 22.6588 24.9656 24.0264 23.5958ZM11.3869 10.937C10.0193 12.3067 9.3316 13.8939 9.19031 15.5103C8.85838 15.3804 8.52204 15.2548 8.20429 15.151C7.2782 14.8486 6.21296 14.6159 5.10712 14.7742L4.2771 14.8929L7.11853 12.0472C7.65522 11.5097 8.35814 11.1706 9.11222 11.0852L11.4728 10.8511L11.3869 10.937ZM31.9608 2.27292C31.1308 2.19736 29.8472 2.21354 28.1416 2.62904C24.7331 3.45938 19.5743 5.9018 12.9668 12.5194C11.6115 13.8768 11.2198 15.4519 11.4656 17.0058C11.6994 18.4835 12.5221 19.9857 13.7568 21.2223C14.9911 22.4585 16.4906 23.2824 17.9657 23.5168C19.5176 23.7634 21.0908 23.3712 22.4465 22.0135C29.1811 15.2686 31.615 10.1039 32.4128 6.72953C32.8118 5.04199 32.8059 3.78583 32.7147 2.98074C32.6866 2.73337 32.6504 2.5273 32.6148 2.36315C32.4418 2.33005 32.2235 2.29684 31.9608 2.27292Z" fill="#F67875"/>
<path d="M15.3319 26.5536C13.9177 25.8051 12.5711 24.7819 11.3868 23.5959C10.1301 22.3372 9.05645 20.8953 8.29945 19.3838C5.88902 21.5535 4.00078 30.4397 4.27711 30.7164C4.55093 30.9906 12.8855 28.7557 15.3319 26.5536Z" fill="#F67875"/>
</svg>
